name C:\Users\r0593348\3dpredictsim\Results\batch_windlass\Pog_s1_tmt_bCst_d00_k500_WL40_ig24.mot
datacolumns 128
datarows 4
range 0.00000000 0.03290836
endheader
time	pelvis_tilt	pelvis_list	pelvis_rotation	pelvis_tx	pelvis_ty	pelvis_tz	hip_flexion_l	hip_adduction_l	hip_rotation_l	hip_flexion_r	hip_adduction_r	hip_rotation_r	knee_angle_l	knee_angle_r	ankle_angle_l	ankle_angle_r	subtalar_angle_l	subtalar_angle_r	tmt_angle_l	tmt_angle_r	mtp_angle_l	mtp_angle_r	lumbar_extension	lumbar_bending	lumbar_rotation	arm_flex_l	arm_add_l	arm_rot_l	arm_flex_r	arm_add_r	arm_rot_r	elbow_flex_l	elbow_flex_r	pro_sup_l	pro_sup_r	glut_med1_l/activation	glut_med2_l/activation	glut_med3_l/activation	glut_min1_l/activation	glut_min2_l/activation	glut_min3_l/activation	semimem_l/activation	semiten_l/activation	bifemlh_l/activation	bifemsh_l/activation	sar_l/activation	add_long_l/activation	add_brev_l/activation	add_mag1_l/activation	add_mag2_l/activation	add_mag3_l/activation	tfl_l/activation	pect_l/activation	grac_l/activation	glut_max1_l/activation	glut_max2_l/activation	glut_max3_l/activation	iliacus_l/activation	psoas_l/activation	quad_fem_l/activation	gem_l/activation	peri_l/activation	rect_fem_l/activation	vas_med_l/activation	vas_int_l/activation	vas_lat_l/activation	med_gas_l/activation	lat_gas_l/activation	soleus_l/activation	tib_post_l/activation	flex_dig_l/activation	flex_hal_l/activation	tib_ant_l/activation	per_brev_l/activation	per_long_l/activation	per_tert_l/activation	ext_dig_l/activation	ext_hal_l/activation	ercspn_l/activation	intobl_l/activation	extobl_l/activation	glut_med1_r/activation	glut_med2_r/activation	glut_med3_r/activation	glut_min1_r/activation	glut_min2_r/activation	glut_min3_r/activation	semimem_r/activation	semiten_r/activation	bifemlh_r/activation	bifemsh_r/activation	sar_r/activation	add_long_r/activation	add_brev_r/activation	add_mag1_r/activation	add_mag2_r/activation	add_mag3_r/activation	tfl_r/activation	pect_r/activation	grac_r/activation	glut_max1_r/activation	glut_max2_r/activation	glut_max3_r/activation	iliacus_r/activation	psoas_r/activation	quad_fem_r/activation	gem_r/activation	peri_r/activation	rect_fem_r/activation	vas_med_r/activation	vas_int_r/activation	vas_lat_r/activation	med_gas_r/activation	lat_gas_r/activation	soleus_r/activation	tib_post_r/activation	flex_dig_r/activation	flex_hal_r/activation	tib_ant_r/activation	per_brev_r/activation	per_long_r/activation	per_tert_r/activation	ext_dig_r/activation	ext_hal_r/activation	ercspn_r/activation	intobl_r/activation	extobl_r/activation	
          0.00000000	         -2.93017642	         -1.52448662	          5.35878615	          0.00000000	          0.86049991	         -0.00218356	        -17.46319440	         -0.85686378	          6.85694721	         31.80064216	          2.19066599	         -1.87934255	         -7.49554581	        -15.45323582	          3.26061571	          7.64301752	          9.86308893	         -1.35244243	         -9.69718024	         -0.14118014	         27.12003205	          0.40454151	         -1.35360084	         -0.33743602	         -1.96824964	          5.11139041	        -13.45160458	         15.02661637	         -8.76127360	        -13.48154917	          6.33834078	         35.16505648	         17.73484744	         86.51662706	         86.51662706	          0.35472737	          0.09787363	          0.06124662	          0.33449208	          0.19904736	          0.09845352	          0.05000256	          0.05000043	          0.05000033	          0.06763042	          0.09532728	          0.05000428	          0.05000048	          0.05000063	          0.05000167	          0.05000173	          0.26565468	          0.05000231	          0.05000091	          0.05000438	          0.05000282	          0.05000195	          0.33834702	          0.54475853	          0.05000027	          0.05000132	          0.05913941	          0.22639374	          0.05002461	          0.09099894	          0.05953604	          0.29504691	          0.37904276	          0.25565978	          0.23394045	          0.16221162	          0.27323517	          0.05000003	          0.11559998	          0.17707530	          0.05000024	          0.05000005	          0.05000017	          0.05000001	          0.05000005	          0.05000003	          0.05000272	          0.05000050	          0.05914136	          0.05000024	          0.05000034	          0.05000159	          0.06995345	          0.05924111	          0.12527326	          0.05000103	          0.05000183	          0.09891594	          0.13933208	          0.12338959	          0.14529218	          0.10304232	          0.05807977	          0.05000999	          0.05915591	          0.05914444	          0.05914311	          0.08530759	          0.05000043	          0.05049039	          0.19808725	          0.05000050	          0.05000144	          0.05000033	          0.07343104	          0.08271393	          0.06185383	          0.05000004	          0.05000008	          0.05000001	          0.05672122	          0.05914185	          0.05914234	          0.46089413	          0.33431330	          0.22828339	          0.10443842	          0.51477603	          0.23892423	          0.06369065	          0.12108019	          0.12256954	
          0.01096945	         -2.92792661	         -1.56597380	          5.60967956	          0.01660528	          0.85983880	         -0.00198427	        -17.43842780	         -1.10925518	          6.63438755	         31.14094767	          2.51729044	         -1.69287356	         -9.14290189	        -14.95732437	          2.39214834	          7.29646848	         10.70583741	         -1.78038216	        -10.65911565	         -0.19570022	         28.50677313	          0.56191616	         -1.14969752	         -0.14491423	         -2.04301600	          4.91654720	        -13.46060478	         15.35594979	         -9.81913616	        -13.46390439	          6.16827508	         36.21582987	         17.60195435	         86.51662706	         86.51662706	          0.34867147	          0.08274574	          0.05178003	          0.28279135	          0.16828152	          0.08323602	          0.05000146	          0.05000027	          0.05000020	          0.05717718	          0.08059333	          0.10819611	          0.15298385	          0.05000346	          0.05000387	          0.05000070	          0.22459368	          0.07243492	          0.05000297	          0.05000193	          0.05000114	          0.05000095	          0.28605033	          0.48178103	          0.05000030	          0.05000064	          0.05000024	          0.19140106	          0.10860233	          0.10272642	          0.09350007	          0.24944275	          0.32045572	          0.21614352	          0.19778158	          0.13714011	          0.23100263	          0.05000002	          0.09773227	          0.14970566	          0.05000018	          0.05000004	          0.05000016	          0.05000011	          0.05000025	          0.05843807	          0.05914114	          0.05914130	          0.05000033	          0.05914141	          0.05914136	          0.05914104	          0.05914132	          0.05008467	          0.11686658	          0.05000037	          0.05000073	          0.10980099	          0.23489206	          0.10431814	          0.12283746	          0.10722236	          0.05000018	          0.05892434	          0.05001306	          0.05000299	          0.05000170	          0.14445451	          0.05679339	          0.05000035	          0.30275089	          0.23479362	          0.14730862	          0.05367795	          0.16489541	          0.16282125	          0.14107185	          0.05556140	          0.05594058	          0.05803734	          0.05000002	          0.05000069	          0.05000118	          0.60541980	          0.34666767	          0.19740634	          0.41885635	          0.58585783	          0.35140464	          0.05384627	          0.10236534	          0.10362448	
          0.02193890	         -2.92039421	         -1.61173804	          5.83276862	          0.03350161	          0.85905429	         -0.00178379	        -17.33765409	         -1.35878062	          6.40142192	         30.38732980	          2.82328632	         -1.46023061	        -10.95121058	        -15.07099834	          1.40859087	          6.65446668	         11.51631501	         -2.20851499	        -11.45755728	         -0.31455467	         29.53378777	          0.73287655	         -0.92558766	          0.06200060	         -2.10873745	          4.64579599	        -13.47353294	         15.62013004	        -10.88429363	        -13.45147384	          6.04874034	         37.23710440	         17.47806785	         86.51662706	         86.51662706	          0.29477887	          0.06995610	          0.05000051	          0.23908170	          0.14227102	          0.07037063	          0.05000400	          0.05000055	          0.05000079	          0.05000011	          0.06813662	          0.20176864	          0.26026766	          0.11206106	          0.05914258	          0.12718772	          0.18987927	          0.06123948	          0.05000093	          0.05002198	          0.05006009	          0.05913901	          0.24183679	          0.42115228	          0.05000144	          0.05000890	          0.05000034	          0.16181704	          0.13692949	          0.14031107	          0.13692778	          0.21088742	          0.27092423	          0.18273512	          0.16721137	          0.11594320	          0.19529765	          0.05324613	          0.08262628	          0.12656646	          0.05000024	          0.08753285	          0.05000138	          0.05643305	          0.06230701	          0.06150639	          0.05000003	          0.05000015	          0.09712596	          0.05000020	          0.05000018	          0.05000017	          0.05000015	          0.05000016	          0.09880303	          0.05000009	          0.05000046	          0.09282990	          0.19858973	          0.30847467	          0.20737896	          0.11575254	          0.05000146	          0.05914436	          0.06204066	          0.07060502	          0.09568297	          0.12212695	          0.05000016	          0.05000116	          0.39942813	          0.19850261	          0.12453981	          0.06995342	          0.22088716	          0.22426217	          0.19136200	          0.06146810	          0.06710171	          0.05000003	          0.06238510	          0.05333746	          0.05000156	          0.51184282	          0.36549897	          0.22062286	          0.35411668	          0.54156914	          0.29708959	          0.05000000	          0.08654317	          0.08760769	
          0.03290836	         -2.90897172	         -1.66649202	          6.02530216	          0.05057677	          0.85813519	         -0.00160092	        -17.16210268	         -1.60364914	          6.15788990	         29.46481504	          3.07168362	         -1.20786832	        -12.91018601	        -15.39937650	          0.33419555	          6.19776668	         12.25759614	         -2.64124640	        -12.01195991	         -0.96237531	         30.00216022	          0.76054864	         -0.69062847	          0.28695089	         -2.16221594	          4.31626227	        -13.48608981	         15.82341279	        -11.92567438	        -13.45081778	          6.01340032	         38.22484805	         17.33057924	         86.51662706	         86.51662706	          0.36276422	          0.05914331	          0.05000003	          0.31919199	          0.12028087	          0.05949380	          0.05000309	          0.05000023	          0.05000015	          0.05000051	          0.05914346	          0.17058234	          0.22012153	          0.09474047	          0.05000243	          0.10752910	          0.16053072	          0.08274863	          0.05000058	          0.05000071	          0.05000046	          0.05000036	          0.20445719	          0.40410680	          0.05000005	          0.05000022	          0.05000017	          0.13680567	          0.11576493	          0.11862382	          0.11576348	          0.17829144	          0.22904862	          0.15449052	          0.14136628	          0.09802253	          0.16511143	          0.08719818	          0.15490153	          0.16231568	          0.18160951	          0.17150057	          0.09786987	          0.06787540	          0.05267648	          0.05199963	          0.24407992	          0.24995145	          0.29542157	          0.32605472	          0.21736105	          0.18208654	          0.08152225	          0.08528457	          0.10115542	          0.08274450	          0.05914165	          0.07848163	          0.16789459	          0.26079514	          0.17532541	          0.09786153	          0.05000051	          0.05000403	          0.05245162	          0.16896776	          0.13310785	          0.10325042	          0.05000094	          0.05000048	          0.33769031	          0.16782114	          0.22970688	          0.05914104	          0.18674561	          0.18959896	          0.16178402	          0.05196729	          0.05673016	          0.05724290	          0.05274252	          0.05914141	          0.05914130	          0.61974105	          0.42524800	          0.21502021	          0.49946742	          0.64030123	          0.38918941	          0.05134410	          0.09787037	          0.07406654	
